<svg style="position: absolute; width: 0; height: 0; overflow: hidden;" version="1.1" xmlns="http://www.w3.org/2000/svg" xmlns:xlink="http://www.w3.org/1999/xlink">
<defs>
<symbol id="icon-500px" viewBox="0 0 32 32">
<path d="M28.016 26.6c-0.226-0.228-0.42-0.36-0.588-0.408-0.17-0.050-0.32-0.014-0.44 0.106l-0.112 0.1c-1.16 1.16-2.52 2.080-4.024 2.7-1.56 0.66-3.22 0.98-4.928 0.98-1.71 0-3.368-0.34-4.93-1-1.506-0.64-2.86-1.56-4.024-2.72-1.212-1.22-2.124-2.58-2.714-4.020-0.574-1.42-0.76-2.5-0.82-2.84l-0.016-0.080c-0.080-0.42-0.46-0.44-1.008-0.36-0.228 0.040-0.92 0.14-0.856 0.64v0.020c0.186 1.14 0.51 2.28 0.966 3.36 0.74 1.72 1.78 3.28 3.12 4.62s2.9 2.38 4.62 3.12c1.8 0.76 3.7 1.14 5.68 1.14 1.96 0 3.88-0.38 5.66-1.14 1.74-0.74 3.3-1.78 4.62-3.12l0.12-0.12c0.16-0.16 0.28-0.44-0.3-1.020zM17.9 3.42c-1.876 0-3.872 0.38-5.34 1.014-0.154 0.060-0.248 0.186-0.268 0.364-0.020 0.16 0.026 0.38 0.14 0.66 0.088 0.24 0.33 0.84 0.8 0.66 1.5-0.58 3.16-0.9 4.668-0.9 1.714 0 3.376 0.34 4.94 1 1.24 0.52 2.414 1.28 3.688 2.38 0.092 0.080 0.192 0.12 0.292 0.12 0.25 0 0.488-0.24 0.692-0.48 0.34-0.38 0.574-0.7 0.24-1.020-1.22-1.16-2.552-2.020-4.2-2.72-1.79-0.76-3.692-1.14-5.652-1.14zM15.344 19.3c0 0.212 0.196 0.4 0.312 0.51l0.036 0.036c0.2 0.196 0.388 0.296 0.56 0.296 0.148 0 0.236-0.060 0.268-0.1 0.088-0.080 1.080-1.080 1.172-1.18l1.104 1.1c0.104 0.12 0.214 0.18 0.344 0.18 0.176 0 0.368-0.1 0.572-0.3 0.476-0.48 0.24-0.74 0.12-0.88l-1.12-1.1 1.17-1.18c0.26-0.28 0.040-0.56-0.18-0.8-0.32-0.32-0.64-0.4-0.84-0.22l-1.16 1.16-1.16-1.16c-0.060-0.060-0.14-0.080-0.22-0.080-0.14 0-0.34 0.12-0.54 0.32-0.36 0.36-0.44 0.62-0.24 0.82l1.18 1.18-1.16 1.18c-0.1 0.1-0.14 0.2-0.14 0.3zM7.982 21.122c0 0.020 0.18 0.48 0.28 0.7 0.52 1.26 1.28 2.38 2.24 3.34s2.080 1.72 3.34 2.24c1.3 0.54 2.68 0.82 4.080 0.82 1.42 0 2.8-0.28 4.080-0.82 1.26-0.52 2.38-1.28 3.34-2.24s1.72-2.080 2.24-3.34c0.56-1.28 0.82-2.66 0.82-4.080 0-1.4-0.26-2.78-0.82-4.060-0.52-1.24-1.28-2.36-2.24-3.34-0.96-0.96-2.080-1.7-3.32-2.24-1.28-0.54-2.66-0.82-4.080-0.82s-2.86 0.28-4.12 0.82c-1.020 0.44-2.74 1.54-3.76 2.58v0.020-8.722h14.48c0.52-0.008 0.52-0.74 0.52-0.986 0-0.24 0-0.98-0.52-0.98h-15.782c-0.424 0-0.688 0.34-0.688 0.68v12.14c0 0.38 0.488 0.66 0.94 0.76 0.886 0.188 1.090-0.1 1.306-0.4l0.020-0.040c0.32-0.484 1.36-1.524 1.38-1.54 1.6-1.608 3.76-2.5 6.060-2.5 2.28 0 4.44 0.89 6.060 2.5 1.62 1.62 2.5 3.766 2.5 6.040 0 2.286-0.9 4.432-2.5 6.040-1.6 1.592-3.82 2.5-6.1 2.5-1.56 0-3.040-0.408-4.32-1.188v-7.386c0-0.98 0.42-2.040 1.14-2.86 0.82-0.92 1.94-1.42 3.16-1.42 1.18 0 2.3 0.45 3.12 1.27 0.82 0.816 1.26 1.9 1.26 3.056 0 2.46-1.94 4.38-4.42 4.38-0.48 0-1.36-0.214-1.38-0.22-0.5-0.152-0.72 0.54-0.78 0.772-0.28 0.88 0.14 1.040 0.22 1.080 0.8 0.24 1.32 0.28 2 0.28 3.5 0 6.34-2.84 6.34-6.34 0-3.48-2.84-6.3-6.34-6.3-1.72 0-3.32 0.64-4.52 1.84-1.16 1.12-1.82 2.64-1.82 4.12v6.080c-0.66-0.74-1.3-1.84-1.74-2.98-0.18-0.44-0.56-0.36-1.080-0.2-0.24 0.060-0.92 0.28-0.78 0.78z"></path>
</symbol>
<symbol id="icon-aboutme" viewBox="0 0 32 32">
<path d="M26.048 12.192c-1.832 0-2.844 1.35-3.060 2.82h6.144c-0.168-1.4-1.156-2.82-3.084-2.82zM23.036 17.012c0.314 1.54 1.59 2.626 3.374 2.626 0.964 0 2.36-0.36 3.18-1.22l1.566 1.8c-1.42 1.48-3.54 1.9-4.986 1.9-3.52 0-6.266-2.54-6.266-6.14 0-3.38 2.528-6.16 6.096-6.16 3.444 0 6 2.64 6 6.14v1.020h-8.964zM14.384 22.116v-7.586c0-1.3-0.576-2.048-1.78-2.048-1.086 0-1.808 0.78-2.29 1.34v8.32h-3.134v-7.6c0-1.3-0.552-2.040-1.756-2.040-1.084 0-1.834 0.78-2.29 1.34v8.32h-3.134v-12.162h3.134v1.534c0.53-0.62 1.734-1.68 3.614-1.68 1.66 0 2.794 0.7 3.3 2.12 0.7-1.016 2-2.12 3.88-2.12 2.266 0 3.59 1.346 3.59 3.948v8.32h-3.138z"></path>
</symbol>
<symbol id="icon-amazon" viewBox="0 0 32 32">
<path d="M0.060 24.030c0.096-0.156 0.25-0.166 0.464-0.030 4.848 2.812 10.124 4.22 15.826 4.22 3.8 0 7.554-0.71 11.26-2.126l0.42-0.174c0.184-0.080 0.314-0.136 0.392-0.174 0.3-0.116 0.52-0.060 0.7 0.174 0.16 0.232 0.12 0.446-0.16 0.64-0.34 0.252-0.8 0.544-1.34 0.872-1.66 0.99-3.52 1.756-5.58 2.3-2.040 0.54-4.060 0.814-6.020 0.814-3.020 0-5.88-0.53-8.58-1.586s-5.102-2.546-7.242-4.466c-0.14-0.094-0.2-0.194-0.2-0.29 0-0.060 0.020-0.116 0.060-0.174zM8.812 15.74c0-1.34 0.33-2.484 0.99-3.434s1.56-1.668 2.72-2.154c1.060-0.446 2.34-0.766 3.88-0.96 0.52-0.060 1.38-0.136 2.56-0.232v-0.494c0-1.24-0.14-2.076-0.4-2.5-0.4-0.584-1.040-0.876-1.92-0.876h-0.242c-0.64 0.060-1.194 0.26-1.66 0.612-0.466 0.36-0.766 0.84-0.9 1.46-0.080 0.4-0.274 0.62-0.58 0.68l-3.36-0.42c-0.33-0.080-0.496-0.24-0.496-0.52 0-0.060 0.010-0.12 0.030-0.2 0.33-1.72 1.14-3 2.428-3.84 1.3-0.82 2.8-1.3 4.52-1.4h0.72c2.2 0 3.94 0.58 5.18 1.72 0.18 0.2 0.36 0.4 0.54 0.64 0.16 0.22 0.3 0.42 0.38 0.6 0.1 0.18 0.2 0.44 0.26 0.76 0.080 0.34 0.14 0.56 0.18 0.68 0.040 0.14 0.080 0.4 0.1 0.82s0.040 0.66 0.040 0.74v7.040c0 0.5 0.080 0.96 0.22 1.38s0.28 0.72 0.42 0.9l0.68 0.9c0.12 0.18 0.18 0.34 0.18 0.48 0 0.16-0.080 0.3-0.24 0.42-1.6 1.4-2.48 2.16-2.62 2.28-0.22 0.18-0.5 0.2-0.84 0.060-0.26-0.22-0.5-0.44-0.7-0.66l-0.42-0.46c-0.080-0.1-0.22-0.28-0.42-0.56l-0.4-0.58c-1.080 1.18-2.14 1.92-3.2 2.22-0.66 0.2-1.46 0.3-2.44 0.3-1.48 0-2.72-0.46-3.68-1.38s-1.44-2.22-1.44-3.92zM13.816 15.156c0 0.756 0.188 1.36 0.566 1.82 0.38 0.454 0.9 0.68 1.54 0.68 0.060 0 0.14-0.008 0.26-0.026 0.12-0.020 0.18-0.030 0.22-0.030 0.82-0.214 1.44-0.736 1.9-1.57 0.22-0.37 0.38-0.772 0.48-1.208 0.12-0.42 0.16-0.78 0.18-1.060 0.020-0.26 0.020-0.72 0.020-1.34v-0.72c-1.12 0-1.98 0.080-2.56 0.24-1.7 0.48-2.56 1.56-2.56 3.24zM26.032 24.524c0.040-0.080 0.1-0.156 0.174-0.234 0.486-0.328 0.952-0.552 1.4-0.668 0.734-0.18 1.452-0.3 2.15-0.32 0.194-0.020 0.38 0 0.552 0.040 0.874 0.080 1.4 0.22 1.572 0.44 0.080 0.12 0.116 0.3 0.116 0.52v0.2c0 0.68-0.184 1.48-0.552 2.4-0.37 0.92-0.884 1.66-1.54 2.24-0.1 0.080-0.186 0.12-0.264 0.12-0.040 0-0.080 0-0.116-0.020-0.12-0.060-0.146-0.16-0.088-0.32 0.72-1.68 1.076-2.86 1.076-3.52 0-0.2-0.040-0.36-0.116-0.46-0.194-0.22-0.736-0.34-1.63-0.34-0.328 0-0.716 0.020-1.16 0.060-0.488 0.060-0.934 0.12-1.34 0.18-0.12 0-0.194-0.020-0.234-0.060s-0.048-0.060-0.028-0.1c0-0.020 0.008-0.040 0.028-0.080z"></path>
</symbol>
<symbol id="icon-behance" viewBox="0 0 32 32">
<path d="M9.28 5.974c0.94 0 1.792 0.080 2.568 0.25 0.772 0.164 1.43 0.436 1.988 0.812 0.548 0.374 0.98 0.872 1.284 1.5 0.3 0.62 0.452 1.394 0.452 2.31 0 0.99-0.226 1.82-0.676 2.48-0.452 0.66-1.12 1.204-2.008 1.624 1.212 0.348 2.108 0.96 2.704 1.832 0.6 0.88 0.89 1.94 0.89 3.16 0 1-0.18 1.86-0.56 2.58-0.38 0.74-0.9 1.34-1.56 1.8-0.64 0.46-1.4 0.8-2.24 1.020-0.82 0.22-1.68 0.34-2.56 0.34h-9.562v-19.702h9.28zM22.66 22.24c0.586 0.572 1.434 0.86 2.532 0.86 0.788 0 1.472-0.2 2.044-0.6 0.568-0.394 0.912-0.82 1.046-1.26h3.46c-0.54 1.714-1.4 2.94-2.54 3.676-1.14 0.74-2.52 1.11-4.12 1.11-1.12 0-2.12-0.18-3.040-0.54-0.9-0.36-1.66-0.87-2.3-1.532-0.62-0.664-1.1-1.452-1.44-2.376-0.34-0.92-0.5-1.94-0.5-3.040 0-1.080 0.18-2.060 0.54-2.98 0.36-0.94 0.86-1.72 1.5-2.4 0.66-0.68 1.42-1.2 2.32-1.6s1.88-0.58 2.98-0.58c1.22 0 2.26 0.22 3.18 0.7 0.9 0.46 1.64 1.1 2.22 1.88 0.6 0.78 1 1.68 1.26 2.7 0.26 1 0.34 2.060 0.28 3.18h-10.282c0 1.12 0.38 2.18 0.96 2.76zM8.96 22.306c0.426 0 0.832-0.040 1.214-0.124 0.388-0.080 0.732-0.22 1.020-0.4 0.292-0.18 0.532-0.44 0.706-0.78 0.174-0.32 0.26-0.76 0.26-1.28 0-1-0.286-1.72-0.854-2.16-0.57-0.42-1.328-0.64-2.26-0.64h-4.712v5.42h4.626zM27.16 14.752c-0.468-0.516-1.256-0.794-2.216-0.794-0.626 0-1.144 0.1-1.56 0.32-0.404 0.2-0.736 0.46-0.99 0.78-0.252 0.32-0.424 0.64-0.524 1-0.1 0.34-0.16 0.66-0.18 0.94h6.37c-0.094-1-0.434-1.74-0.9-2.26zM8.72 13.926c0.768 0 1.404-0.18 1.906-0.552 0.5-0.364 0.74-0.964 0.74-1.79 0-0.46-0.080-0.836-0.24-1.13-0.168-0.294-0.39-0.524-0.668-0.684-0.28-0.168-0.6-0.284-0.96-0.346-0.36-0.070-0.74-0.1-1.12-0.1h-4.058v4.6h4.4zM20.89 7.294h7.98v1.944h-7.98v-1.96z"></path>
</symbol>
<symbol id="icon-bitbucket" viewBox="0 0 32 32">
<path d="M16 0c-7.626 0-13.89 2.040-13.89 4.63 0 0.68 1.634 10.348 2.316 14.16 0.272 1.772 4.766 4.22 11.574 4.22s11.166-2.448 11.574-4.22c0.68-3.812 2.316-13.48 2.316-14.16-0.136-2.59-6.264-4.63-13.89-4.63zM16 19.88c-2.452 0-4.36-1.906-4.36-4.356 0-2.452 1.908-4.36 4.36-4.36s4.36 1.908 4.36 4.36c0 2.316-1.91 4.356-4.36 4.356zM16 5.992c-4.9 0-8.852-0.82-8.852-1.906 0-1.090 3.95-1.908 8.852-1.908 4.9 0 8.852 0.8 8.852 1.9 0 1.080-3.95 1.9-8.852 1.9z"></path>
<path d="M25.94 22.468c-0.272 0-0.408 0.136-0.408 0.136s-3.404 2.724-9.532 2.724-9.532-2.724-9.532-2.724-0.272-0.136-0.408-0.136c-0.272 0-0.546 0.136-0.546 0.544v0.136c0.546 2.86 0.954 4.904 0.954 5.176 0.408 2.040 4.492 3.676 9.396 3.676 4.9 0 8.988-1.634 9.396-3.676 0-0.272 0.408-2.316 0.952-5.176v-0.136c0.136-0.272 0-0.544-0.272-0.544z"></path>
<path d="M18.178 15.388c0 1.203-0.975 2.178-2.178 2.178s-2.178-0.975-2.178-2.178c0-1.203 0.975-2.178 2.178-2.178s2.178 0.975 2.178 2.178z"></path>
</symbol>
<symbol id="icon-blogger" viewBox="0 0 32 32">
<path d="M29.3 32h-26.6c-1.5 0-2.7-1.2-2.7-2.7v-26.6c0-1.5 1.2-2.7 2.7-2.7h26.7c1.4 0 2.6 1.2 2.6 2.7v26.6c0 1.5-1.2 2.7-2.7 2.7zM16 5.3h-4c-3.7 0-6.7 3-6.7 6.7v8c0 3.7 3 6.7 6.7 6.7h8c3.7 0 6.7-3 6.7-6.7v-5.3c0-0.8-0.6-1.4-1.4-1.4h-1.3c-0.7 0-1.3-0.6-1.3-1.3 0-3.7-3-6.7-6.7-6.7zM20.1 21.3h-8.1c-0.7 0-1.3-0.6-1.3-1.3s0.6-1.3 1.3-1.3h8.1c0.7 0 1.3 0.6 1.3 1.3s-0.6 1.3-1.3 1.3zM16.7 10.7c0.7 0 1.3 0.6 1.3 1.3s-0.6 1.3-1.3 1.3h-4.8c-0.7 0-1.3-0.6-1.3-1.3s0.6-1.3 1.3-1.3h4.8z"></path>
</symbol>
<symbol id="icon-codepen" viewBox="0 0 32 32">
<path d="M31.976 10.886c-0.008-0.040-0.014-0.080-0.024-0.116l-0.020-0.066c-0.012-0.034-0.024-0.068-0.040-0.1-0.006-0.024-0.020-0.046-0.028-0.068l-0.046-0.090-0.040-0.064-0.060-0.080-0.060-0.060-0.080-0.060-0.060-0.040-0.080-0.060-0.060-0.040-0.020-0.020-14.598-9.782c-0.46-0.308-1.060-0.308-1.52 0l-14.796 9.87-0.050 0.054-0.068 0.074-0.048 0.060-0.060 0.080c-0.020 0.020-0.040 0.040-0.040 0.060l-0.060 0.080-0.020 0.080c-0.020 0.020-0.020 0.060-0.040 0.1l-0.020 0.060c-0.020 0.040-0.020 0.080-0.020 0.12v0.060c-0.018 0.062-0.018 0.122-0.018 0.182v9.75c0 0.060 0.004 0.12 0.012 0.18l0.014 0.060c0.006 0.040 0.012 0.080 0.026 0.116l0.020 0.066c0.012 0.036 0.020 0.070 0.036 0.1l0.030 0.066c0 0.020 0.020 0.060 0.040 0.080l0.040 0.060c0.020 0.020 0.040 0.060 0.060 0.080l0.040 0.060 0.060 0.060c0.020 0.020 0.020 0.040 0.040 0.040l0.080 0.060 0.060 0.040 0.020 0.020 14.62 9.76c0.22 0.16 0.5 0.22 0.76 0.22s0.52-0.080 0.76-0.24l14.802-9.822 0.060-0.052 0.070-0.074 0.048-0.060 0.060-0.080 0.040-0.064 0.040-0.092 0.020-0.072 0.040-0.1 0.020-0.060 0.040-0.1v-10c0-0.060 0-0.12-0.020-0.18l-0.020-0.060zM16 19.252l-4.864-3.252 4.864-3.252 4.864 3.252-4.864 3.252zM14.624 10.36l-5.96 3.986-4.812-3.22 10.772-7.18v6.414zM6.19 16l-3.44 2.3v-4.6l3.44 2.3zM8.664 17.656l5.96 3.986v6.42l-10.772-7.18 4.812-3.22zM17.374 21.642l5.96-3.98 4.814 3.22-10.774 7.18v-6.4zM25.81 16l3.44-2.3v4.6l-3.44-2.3zM23.336 14.346l-5.96-3.986v-6.42l10.772 7.18-4.812 3.22z"></path>
</symbol>
<symbol id="icon-dailymotion" viewBox="0 0 32 32">
<path d="M0 32v-32h32v32h-32zM27.594 4.524l-4.926 1.020v7.296c-1.12-1.434-2.68-2.12-4.708-2.12-2.12 0-4.020 0.78-5.58 2.308-1.746 1.68-2.68 3.834-2.68 6.234 0 2.62 1 4.88 2.93 6.58 1.466 1.32 3.212 1.98 5.24 1.98 1.992 0 3.488-0.52 4.954-1.96v1.88h4.77v-23.222zM18.958 23.344c-2.54 0-4.34-1.776-4.34-4.114 0-2.244 1.8-4.146 4.14-4.146 2.3 0 4.080 1.808 4.080 4.21 0 2.306-1.78 4.052-3.9 4.052z"></path>
</symbol>
<symbol id="icon-deviantart" viewBox="0 0 32 32">
<path d="M25.6 6.392l0.304-0.574v-5.818h-5.82l-0.58 0.586-2.744 5.234-0.864 0.58h-9.8v7.99h5.388l0.48 0.58-5.566 10.64-0.32 0.572v5.818h5.82l0.58-0.586 2.76-5.234 0.86-0.58h9.8v-7.99h-5.4l-0.48-0.584 5.58-10.634z"></path>
</symbol>
<symbol id="icon-digg" viewBox="0 0 32 32">
<path d="M23.68 10.88v10.88h5.12v1.28h-5.12v2.56h8.32v-14.72h-8.32zM14.080 10.88v10.88h5.12v1.28h-5.12v2.56h8.32v-14.72h-8.32zM5.12 6.4v4.48h-5.12v10.88h8.32v-15.36h-3.2zM12.8 10.88h-3.2v10.88h3.2v-10.88zM28.8 19.2h-1.92v-5.76h1.92v5.76zM5.12 19.2h-1.92v-5.76h1.92v5.76zM19.2 19.2h-1.92v-5.76h1.92v5.76zM12.8 6.4h-3.2v3.2h3.2v-3.2z"></path>
</symbol>
<symbol id="icon-dribbble" viewBox="0 0 32 32">
<path d="M16 32c-8.82 0-16-7.18-16-16s7.18-16 16-16 16 7.18 16 16-7.18 16-16 16zM29.494 18.19c-0.468-0.148-4.23-1.27-8.514-0.584 1.788 4.912 2.516 8.912 2.656 9.744 3.066-2.074 5.248-5.36 5.86-9.16zM21.34 28.6c-0.204-1.2-1-5.376-2.92-10.36l-0.088 0.028c-7.708 2.686-10.472 8.032-10.72 8.532 2.316 1.81 5.228 2.888 8.388 2.888 1.894 0 3.7-0.388 5.34-1.086zM5.846 25.16c0.31-0.532 4.060-6.74 11.11-9.020 0.18-0.060 0.36-0.112 0.54-0.16-0.346-0.78-0.72-1.556-1.11-2.32-6.826 2.040-13.446 1.954-14.046 1.94l-0.006 0.416c0 3.51 1.33 6.716 3.512 9.14zM2.62 13.22c0.614 0.010 6.244 0.034 12.636-1.664-2.264-4.024-4.706-7.41-5.066-7.904-3.824 1.804-6.68 5.328-7.568 9.57zM12.8 2.736c0.376 0.506 2.86 3.886 5.096 8 4.86-1.82 6.92-4.586 7.164-4.936-2.414-2.146-5.588-3.448-9.060-3.448-1.1 0-2.174 0.132-3.2 0.38zM26.58 7.38c-0.29 0.388-2.58 3.324-7.632 5.388 0.32 0.65 0.62 1.312 0.906 1.98 0.1 0.234 0.2 0.47 0.294 0.704 4.548-0.572 9.066 0.344 9.516 0.44-0.030-3.226-1.18-6.188-3.086-8.514z"></path>
</symbol>
<symbol id="icon-dropbox" viewBox="0 0 32 32">
<path d="M9.414 1.12l-9.414 6.14 6.508 5.212 9.492-5.856-6.586-5.5zM0 17.688l9.414 6.146 6.586-5.494-9.492-5.866-6.508 5.214zM16 18.34l6.586 5.496 9.414-6.146-6.508-5.214-9.492 5.86zM32 7.264l-9.414-6.144-6.586 5.494 9.492 5.86 6.508-5.21z"></path>
<path d="M16.020 19.52l-6.606 5.48-2.828-1.844v2.070l9.434 5.654 9.432-5.654v-2.070l-2.826 1.846-6.606-5.482z"></path>
</symbol>
<symbol id="icon-facebook" viewBox="0 0 32 32">
<path d="M30.234 0h-28.468c-0.976 0-1.766 0.79-1.766 1.766v28.468c0 0.976 0.79 1.766 1.766 1.766h15.326v-12.392h-4.172v-4.828h4.172v-3.566c0-4.132 2.524-6.38 6.212-6.38 1.766 0 3.284 0.128 3.726 0.188v4.32h-2.56c-2 0-2.39 0.96-2.39 2.36v3.080h4.78l-0.62 4.84h-4.16v12.378h8.154c0.976 0 1.766-0.79 1.766-1.766v-28.468c0-0.976-0.79-1.766-1.766-1.766z"></path>
</symbol>
<symbol id="icon-flickr" viewBox="0 0 32 32">
<path d="M0 16c0 4.1 3.324 7.42 7.42 7.42 4.1 0 7.426-3.32 7.426-7.42s-3.326-7.42-7.426-7.42c-4.094 0-7.42 3.32-7.42 7.42zM17.154 16c0 4.1 3.324 7.42 7.424 7.42 4.082 0 7.422-3.32 7.422-7.42s-3.324-7.42-7.42-7.42c-4.1 0-7.426 3.32-7.426 7.42z"></path>
</symbol>
<symbol id="icon-foursquare" viewBox="0 0 32 32">
<path d="M23.644 4.62l-0.716 3.732c-0.086 0.404-0.594 0.83-1.066 0.83h-6.642c-0.748 0-1.284 0.52-1.284 1.26v0.82c0 0.76 0.54 1.28 1.288 1.28h5.64c0.526 0 1.046 0.58 0.93 1.14l-0.714 3.68c-0.066 0.32-0.42 0.84-1.048 0.84h-4.608c-0.84 0-1.092 0.12-1.652 0.8-0.56 0.7-5.608 6.76-5.608 6.76-0.050 0.060-0.1 0.040-0.1-0.020v-21.182c0-0.48 0.414-1.040 1.036-1.040h13.7c0.5 0 0.972 0.474 0.844 1.094zM24.244 19.26c0.192-0.77 2.328-11.712 3.040-15.18zM24.654 0h-17.070c-2.354 0-3.044 1.772-3.044 2.886v27.12c0 1.254 0.672 1.72 1.052 1.874s1.426 0.284 2.054-0.44c0 0 8.060-9.35 8.196-9.488 0.22-0.21 0.22-0.21 0.42-0.21h5.22c2.2 0 2.54-1.56 2.78-2.48 0.2-0.76 2.34-11.7 3.040-15.18 0.538-2.642-0.142-4.082-2.642-4.082z"></path>
</symbol>
<symbol id="icon-ghost" viewBox="0 0 32 32">
<path d="M12.806 25.6h-12.796v6.4h12.796v-6.4zM31.992 25.6h-12.788v6.4h12.788v-6.4zM31.996 12.8h-31.996v6.4h31.996v-6.4zM32 0h-6.4v6.4h6.4v-6.4zM19.206 0h-19.196v6.4h19.196v-6.4z"></path>
</symbol>
<symbol id="icon-github" viewBox="0 0 32 32">
<path d="M16 0c-8.84 0-16 7.164-16 16 0 7.070 4.584 13.066 10.94 15.18 0.8 0.15 1.094-0.344 1.094-0.77 0-0.38-0.014-1.386-0.020-2.72-4.452 0.966-5.39-2.146-5.39-2.146-0.728-1.848-1.78-2.34-1.78-2.34-1.45-0.992 0.112-0.972 0.112-0.972 1.606 0.112 2.45 1.648 2.45 1.648 1.428 2.446 3.746 1.74 4.66 1.33 0.144-1.034 0.556-1.74 1.014-2.14-3.554-0.4-7.288-1.776-7.288-7.906 0-1.746 0.62-3.174 1.646-4.294-0.18-0.404-0.72-2.030 0.14-4.234 0 0 1.34-0.43 4.4 1.64 1.28-0.356 2.64-0.532 4-0.54 1.36 0.008 2.72 0.184 4 0.54 3.040-2.070 4.38-1.64 4.38-1.64 0.86 2.204 0.32 3.83 0.16 4.234 1.020 1.12 1.64 2.548 1.64 4.294 0 6.146-3.74 7.5-7.3 7.894 0.56 0.48 1.080 1.46 1.080 2.96 0 2.14-0.020 3.86-0.020 4.38 0 0.42 0.28 0.92 1.1 0.76 6.402-2.098 10.982-8.098 10.982-15.158 0-8.836-7.164-16-16-16z"></path>
</symbol>
<symbol id="icon-gitlab" viewBox="0 0 32 32">
<path d="M31.94 18.116l-1.79-5.512-3.55-10.92c-0.18-0.564-0.976-0.564-1.16 0l-3.548 10.916h-11.784l-3.548-10.916c-0.184-0.564-0.98-0.564-1.16-0.004l-3.552 10.92-1.788 5.516c-0.164 0.5 0.016 1.052 0.44 1.364l15.5 11.26 15.5-11.26c0.424-0.312 0.604-0.86 0.44-1.364z"></path>
</symbol>
<symbol id="icon-googleplus" viewBox="0 0 32 32">
<path d="M10.18 14.546v3.49h5.78c-0.232 1.5-1.746 4.394-5.774 4.394-3.474 0-6.31-2.88-6.31-6.43s2.83-6.43 6.304-6.43c1.98 0 3.304 0.844 4.060 1.572l2.764-2.66c-1.774-1.66-4.074-2.66-6.82-2.66-5.634-0.002-10.184 4.558-10.184 10.178s4.552 10.18 10.18 10.18c5.88 0 9.776-4.13 9.776-9.948 0-0.668-0.072-1.18-0.16-1.686h-9.616zM32 14.546h-2.91v-2.91h-2.91v2.91h-2.908v2.908h2.91v2.91h2.92v-2.91h2.898z"></path>
</symbol>
<symbol id="icon-instagram" viewBox="0 0 32 32">
<path d="M16 0c-4.346 0-4.89 0.020-6.596 0.096-1.704 0.080-2.864 0.348-3.884 0.744-1.052 0.408-1.946 0.956-2.834 1.846-0.89 0.888-1.44 1.78-1.846 2.834-0.396 1.020-0.666 2.18-0.744 3.884-0.080 1.706-0.096 2.25-0.096 6.596s0.020 4.89 0.096 6.596c0.080 1.704 0.348 2.866 0.744 3.884 0.408 1.052 0.956 1.946 1.846 2.834 0.888 0.89 1.78 1.44 2.834 1.846 1.020 0.396 2.18 0.666 3.884 0.744 1.706 0.080 2.25 0.096 6.596 0.096s4.89-0.020 6.596-0.096c1.704-0.080 2.866-0.348 3.884-0.744 1.052-0.408 1.946-0.956 2.834-1.846 0.89-0.888 1.44-1.78 1.846-2.834 0.396-1.020 0.666-2.18 0.744-3.884 0.080-1.706 0.096-2.25 0.096-6.596s-0.020-4.89-0.096-6.596c-0.080-1.704-0.348-2.866-0.744-3.884-0.408-1.052-0.956-1.946-1.846-2.834-0.888-0.89-1.78-1.44-2.834-1.846-1.020-0.396-2.18-0.666-3.884-0.744-1.706-0.080-2.25-0.096-6.596-0.096zM16 2.88c4.272 0 4.78 0.020 6.466 0.096 1.56 0.072 2.406 0.332 2.97 0.552 0.748 0.29 1.28 0.636 1.84 1.196s0.906 1.092 1.196 1.84c0.22 0.564 0.48 1.41 0.552 2.97 0.076 1.688 0.094 2.194 0.094 6.466s-0.020 4.78-0.1 6.466c-0.080 1.56-0.34 2.406-0.56 2.97-0.3 0.748-0.64 1.28-1.2 1.84s-1.1 0.906-1.84 1.196c-0.56 0.22-1.42 0.48-2.98 0.552-1.7 0.076-2.2 0.094-6.48 0.094s-4.78-0.020-6.48-0.1c-1.56-0.080-2.42-0.34-2.98-0.56-0.76-0.3-1.28-0.64-1.84-1.2s-0.92-1.1-1.2-1.84c-0.22-0.56-0.48-1.42-0.56-2.98-0.060-1.68-0.080-2.2-0.080-6.46s0.020-4.78 0.080-6.48c0.080-1.56 0.34-2.42 0.56-2.98 0.28-0.76 0.64-1.28 1.2-1.84s1.080-0.92 1.84-1.2c0.56-0.22 1.4-0.48 2.96-0.56 1.7-0.060 2.2-0.080 6.48-0.080zM16 7.784c-4.54 0-8.216 3.68-8.216 8.216 0 4.54 3.68 8.216 8.216 8.216 4.54 0 8.216-3.68 8.216-8.216 0-4.54-3.68-8.216-8.216-8.216zM16 21.334c-2.946 0-5.334-2.388-5.334-5.334s2.388-5.334 5.334-5.334c2.946 0 5.334 2.388 5.334 5.334s-2.388 5.334-5.334 5.334zM26.46 7.46c0 1.060-0.86 1.92-1.92 1.92s-1.92-0.86-1.92-1.92 0.86-1.92 1.92-1.92 1.92 0.86 1.92 1.92z"></path>
</symbol>
<symbol id="icon-lastfm" viewBox="0 0 32 32">
<path d="M14.112 22.946l-1.172-3.186s-1.908 2.124-4.766 2.124c-2.53 0-4.326-2.2-4.326-5.72 0-4.508 2.274-6.12 4.51-6.12 3.22 0 4.24 2.088 5.12 4.764l1.16 3.666c1.16 3.556 3.36 6.414 9.7 6.414 4.54 0 7.62-1.392 7.62-5.060 0-2.966-1.7-4.506-4.84-5.24l-2.34-0.512c-1.62-0.366-2.1-1.026-2.1-2.126 0-1.246 0.98-1.98 2.6-1.98 1.76 0 2.7 0.66 2.86 2.236l3.66-0.44c-0.3-3.3-2.58-4.654-6.32-4.654-3.3 0-6.52 1.246-6.52 5.24 0 2.494 1.2 4.070 4.24 4.8l2.48 0.59c1.86 0.44 2.48 1.22 2.48 2.28 0 1.36-1.32 1.92-3.82 1.92-3.7 0-5.24-1.94-6.12-4.62l-1.2-3.66c-1.54-4.76-4-6.52-8.88-6.52-5.278-0.022-8.138 3.378-8.138 9.178 0 5.566 2.86 8.58 7.992 8.58 4.14 0 6.12-1.94 6.12-1.94z"></path>
</symbol>
<symbol id="icon-linkedin" viewBox="0 0 32 32">
<path d="M27.264 27.27h-4.74v-7.426c0-1.772-0.036-4.050-2.468-4.050-2.47 0-2.848 1.928-2.848 3.92v7.556h-4.74v-15.27h4.552v2.080h0.060c0.636-1.2 2.184-2.466 4.494-2.466 4.8 0 5.69 3.16 5.69 7.274v8.376zM7.116 9.91c-1.524 0-2.752-1.234-2.752-2.754 0-1.516 1.228-2.75 2.752-2.75 1.52 0 2.752 1.234 2.752 2.75 0 1.52-1.234 2.754-2.752 2.754zM9.492 27.27h-4.752v-15.27h4.752v15.27zM29.632 0h-27.272c-1.304 0-2.36 1.032-2.36 2.306v27.388c0 1.274 1.056 2.306 2.36 2.306h27.27c1.304 0 2.37-1.032 2.37-2.306v-27.388c0-1.274-1.066-2.306-2.37-2.306z"></path>
</symbol>
<symbol id="icon-medium" viewBox="0 0 32 32">
<path d="M23.648 25.256l-0.552 0.9 7.084 3.54c0.3 0.152 0.588 0.22 0.836 0.22 0.556 0 0.934-0.354 0.934-0.984v-17.166l-8.3 13.49zM31.84 7.916c-0.008-0.006 0-0.020-0.006-0.024l-9.65-4.824c-0.12-0.060-0.246-0.076-0.374-0.088-0.032 0-0.060-0.020-0.094-0.020-0.368 0-0.736 0.184-0.934 0.508l-0.48 0.78-1 1.628-3.78 6.16 5.78 9.402 1.18 1.9 9.42-15.28c0.040-0.060 0.020-0.12-0.040-0.16zM19.3 22.006l-6.138-9.974-0.5-0.832v9.734l8.64 4.326-2-3.252zM1.474 3.36l-0.294-0.144c-0.17-0.084-0.332-0.124-0.48-0.124-0.412 0-0.7 0.32-0.7 0.854v20.324c0 0.544 0.4 1.188 0.884 1.432l8.29 4.16c0.214 0.12 0.416 0.16 0.6 0.16 0.514 0 0.876-0.4 0.876-1.060v-20.942c0-0.040-0.024-0.080-0.060-0.094l-9.114-4.566z"></path>
</symbol>
<symbol id="icon-patreon" viewBox="0 0 32 32">
<path d="M0 15.56c0-7.454 6.054-14.44 14.036-15.44 5.72-0.666 10.046 1.53 13.040 4.392 2.792 2.66 4.456 6.056 4.856 10.050 0.332 4-0.532 7.46-2.86 10.72-2.328 3.2-6.92 6.72-12.64 6.72h-7.784v-15.362c0.068-3.394 1.2-6.324 5.32-7.72 3.594-1.066 7.786 0.93 9.050 4.724 1.32 4.060-0.6 6.788-2.86 8.452-2.28 1.664-5.8 1.664-8.12 0.066v5.26c1.52 0.74 3.46 0.94 4.86 0.86 5.040-0.72 8.98-3.58 10.64-7.92 1.72-4.58 0.52-9.92-3.060-13.24-4.32-3.54-9.060-4.4-14.1-1.94-3.54 1.8-6 5.46-6.6 9.46v17.358h-3.718l-0.060-16.44z"></path>
</symbol>
<symbol id="icon-paypal" viewBox="0 0 32 32">
<path d="M9.226 32h-4.14c-0.886 0-1.448-0.708-1.248-1.572l0.2-0.9h2.762c0.888 0 1.78-0.71 1.976-1.574l1.42-6.124c0.2-0.864 1.088-1.572 1.974-1.572h1.176c5.052 0 8.98-1.040 11.788-3.12s4.212-4.8 4.212-8.18c0-1.5-0.26-2.74-0.784-3.72 0-0.020-0.020-0.040-0.020-0.060l0.18 0.1c1 0.62 1.76 1.42 2.28 2.42 0.54 1 0.8 2.24 0.8 3.72 0 3.38-1.4 6.1-4.22 8.18-2.8 2.060-6.74 3.1-11.78 3.1h-1.2c-0.88 0-1.78 0.7-1.98 1.58l-1.42 6.14c-0.2 0.86-1.080 1.56-1.96 1.56zM5.656 28.406h-4.14c-0.884 0-1.446-0.706-1.248-1.572l5.832-25.26c0.2-0.868 1.086-1.574 1.972-1.574h8.62c1.86 0 3.48 0.13 4.866 0.384 1.38 0.254 2.56 0.692 3.58 1.32 0.98 0.62 1.76 1.43 2.26 2.426 0.52 0.996 0.78 2.24 0.78 3.728 0 3.38-1.4 6.1-4.22 8.16-2.8 2.080-6.74 3.1-11.78 3.1h-1.178c-0.88 0-1.772 0.7-1.97 1.56l-1.414 6.12c-0.2 0.86-1.090 1.56-1.98 1.56zM15.584 5.246h-1.352c-0.888 0-1.776 0.706-1.974 1.57l-1.24 5.36c-0.2 0.866 0.36 1.572 1.24 1.572h1.020c2.22 0 3.96-0.456 5.2-1.36 1.24-0.914 1.86-2.206 1.86-3.884 0-1.106-0.4-1.926-1.2-2.452-0.8-0.54-2-0.808-3.58-0.808z"></path>
</symbol>
<symbol id="icon-pinterest" viewBox="0 0 32 32">
<path d="M16 0c-8.836 0-16 7.164-16 16 0 6.78 4.216 12.57 10.168 14.9-0.14-1.266-0.266-3.208 0.056-4.59 0.292-1.25 1.876-7.954 1.876-7.954s-0.48-0.96-0.48-2.376c0-2.22 1.292-3.886 2.896-3.886 1.366 0 2.024 1.026 2.024 2.254 0 1.374-0.872 3.426-1.324 5.328-0.38 1.594 0.8 2.89 2.37 2.89 2.84 0 5.028-2.996 5.028-7.324 0-3.82-2.752-6.5-6.684-6.5-4.552 0-7.22 3.42-7.22 6.94 0 1.38 0.526 2.86 1.186 3.66 0.132 0.16 0.15 0.3 0.114 0.46-0.12 0.5-0.392 1.6-0.446 1.82-0.070 0.3-0.23 0.36-0.536 0.22-1.996-0.922-3.248-3.842-3.248-6.202 0-5.040 3.668-9.68 10.574-9.68 5.548 0 9.864 3.96 9.864 9.24 0 5.52-3.48 9.96-8.32 9.96-1.62 0-3.14-0.84-3.68-1.84l-1 3.8c-0.36 1.396-1.34 3.14-2 4.2 1.5 0.46 3.080 0.714 4.74 0.714 8.82 0 16-7.16 16-16s-7.18-16-16-16z"></path>
</symbol>
<symbol id="icon-reddit" viewBox="0 0 32 32">
<path d="M2.946 18.736c-0.080 0.37-0.12 0.748-0.12 1.132 0 4.6 5.88 8.346 13.108 8.346 7.226 0 13.106-3.744 13.106-8.346 0-0.366-0.040-0.728-0.11-1.080l-0.020-0.044c-0.026-0.072-0.040-0.146-0.040-0.22-0.4-1.568-1.49-2.994-3.066-4.144-0.060-0.020-0.116-0.052-0.168-0.094-0.034-0.026-0.060-0.056-0.088-0.086-2.396-1.648-5.82-2.68-9.614-2.68-3.76 0-7.152 1.012-9.544 2.63-0.020 0.024-0.040 0.046-0.066 0.066-0.052 0.044-0.112 0.080-0.174 0.1-1.61 1.152-2.728 2.586-3.144 4.172 0 0.076-0.020 0.154-0.050 0.228l-0.010 0.020zM16 26.006c-2.396 0-4.084-0.52-5.16-1.6-0.232-0.232-0.232-0.61 0-0.844 0.234-0.22 0.614-0.22 0.848 0 0.84 0.84 2.25 1.26 4.31 1.26s3.46-0.4 4.3-1.24c0.22-0.22 0.6-0.22 0.84 0 0.22 0.24 0.22 0.62 0 0.86-1.080 1.080-2.76 1.6-5.16 1.6zM11.184 15.89c-1.22 0-2.24 1.020-2.24 2.24 0 1.216 1.020 2.204 2.24 2.204s2.206-0.988 2.206-2.204c0-1.22-0.988-2.24-2.206-2.24zM20.844 15.89c-1.22 0-2.24 1.020-2.24 2.24 0 1.216 1.020 2.204 2.24 2.204s2.206-0.988 2.206-2.204c0-1.22-0.988-2.24-2.206-2.24zM26.92 13.76c1.386 1.112 2.404 2.432 2.924 3.88 0.6-0.45 0.96-1.156 0.96-1.936 0-1.34-1.090-2.428-2.428-2.428-0.534 0-1.040 0.174-1.456 0.486zM3.624 13.28c-1.34 0-2.428 1.090-2.428 2.428 0 0.726 0.32 1.4 0.86 1.854 0.536-1.44 1.564-2.74 2.956-3.84-0.404-0.28-0.886-0.44-1.388-0.44zM15.934 29.414c-7.888 0-14.304-4.28-14.304-9.54 0-0.366 0.032-0.726 0.092-1.080-1.060-0.66-1.72-1.82-1.72-3.090 0-2 1.64-3.624 3.64-3.624 0.9 0 1.74 0.328 2.4 0.91 2.48-1.592 5.82-2.594 9.5-2.66l2.42-7.38 0.54 0.126s0.020 0 0.020 0.004l5.64 1.326c0.46-1.066 1.52-1.816 2.76-1.816 1.64 0 2.98 1.34 2.98 2.984 0 1.646-1.34 2.984-2.98 2.984s-2.98-1.34-2.98-2.98l-5.142-1.218-1.96 5.98c3.54 0.14 6.74 1.14 9.14 2.7 0.66-0.62 1.528-0.96 2.45-0.96 2 0 3.628 1.62 3.628 3.62 0 1.32-0.72 2.52-1.84 3.16 0.040 0.34 0.080 0.66 0.080 1-0.020 5.26-6.42 9.54-14.32 9.54zM26.86 3.786c-0.988 0-1.79 0.8-1.79 1.788 0 0.986 0.8 1.788 1.788 1.788 0.98 0 1.78-0.8 1.78-1.78s-0.8-1.78-1.8-1.78z"></path>
</symbol>
<symbol id="icon-rss" viewBox="0 0 32 32">
<path d="M25.6 32c0-14.044-11.556-25.6-25.6-25.6v-6.4c17.554 0 32 14.446 32 32h-6.4zM4.388 23.22c2.42 0 4.39 1.97 4.39 4.392 0 2.42-1.98 4.388-4.4 4.388-2.418 0-4.378-1.966-4.378-4.388 0-2.42 1.966-4.39 4.388-4.39zM21.212 32h-6.22c0-8.226-6.766-14.994-14.992-14.994v-6.22c11.636 0 21.212 9.58 21.212 21.214z"></path>
</symbol>
<symbol id="icon-scribd" viewBox="0 0 32 32">
<path d="M19.794 28.060c0-2.83 2.094-5.25 4.72-5.74-0.124-2.628-1.232-4.432-2.956-5.786-1.74-1.354-4.16-2.38-6.78-3.406-2.838-1.108-4.958-2.092-4.958-4.228 0-1.8 1.56-3.156 4.18-3.156 1.6 0 2.63 0.246 3.16 0.532 0 0.124-0.040 0.288-0.12 0.412-0.080 0.164-0.12 0.368-0.12 0.656 0 1.804 1.31 3.404 3.648 3.404 2.134 0 3.406-1.6 3.406-3.94 0-1.966-1.11-3.69-2.916-4.88-1.838-1.188-4.398-1.928-7.298-1.928-3 0.206-5.58 1.312-7.384 2.954-1.806 1.64-2.872 3.856-2.872 6.48 0 2.914 1.026 4.8 2.708 6.24 1.68 1.434 4.1 2.46 7.014 3.484 3.16 1.020 5.006 2.080 5.006 4.18 0 2.12-1.846 3.4-4.76 3.4-1.52 0-2.83-0.26-3.94-1.020 0.29-0.54 0.29-1.080 0.29-1.6 0-1.52-1.34-3.42-3.68-3.42-2.080 0-3.64 1.6-3.64 3.94 0 1.96 1.24 3.82 3.26 5.12 1.98 1.36 4.76 2.22 7.76 2.22 2.64 0 5.020-0.5 6.86-1.82-0.28-0.54-0.52-1.32-0.52-2.14zM29.518 28.060c0 2.094-1.7 3.694-3.7 3.694s-3.66-1.6-3.66-3.692c0-2 1.64-3.64 3.64-3.64s3.68 1.64 3.68 3.66z"></path>
</symbol>
<symbol id="icon-skype" viewBox="0 0 32 32">
<path d="M16.070 25.2c-5.37 0-7.77-2.644-7.77-4.626 0-1.020 0.748-1.73 1.78-1.73 2.3 0 1.7 3.306 5.99 3.306 2.192 0 3.406-1.194 3.406-2.416 0-0.736-0.36-1.55-1.808-1.908l-4.774-1.194c-3.846-0.966-4.544-3.052-4.544-5.008 0-4.068 3.82-5.596 7.408-5.596 3.3 0 7.2 1.832 7.2 4.272 0 1.046-0.92 1.654-1.94 1.654-1.96 0-1.6-2.72-5.56-2.72-1.96 0-3.060 0.888-3.060 2.16s1.54 1.68 2.88 1.986l3.52 0.784c3.86 0.866 4.84 3.132 4.84 5.266 0 3.304-2.54 5.772-7.64 5.772zM30.798 18.682l-0.040 0.18-0.060-0.32c0.020 0.060 0.060 0.1 0.080 0.16 0.16-0.9 0.24-1.82 0.24-2.74 0-2.040-0.4-4.020-1.2-5.9-0.76-1.8-1.86-3.42-3.24-4.8-1.4-1.38-3-2.48-4.8-3.24-1.758-0.842-3.738-1.242-5.778-1.242-0.96 0-1.928 0.094-2.86 0.274l0.16 0.080-0.32-0.046 0.16-0.032c-1.286-0.69-2.73-1.056-4.196-1.056-2.388 0-4.634 0.932-6.324 2.626s-2.62 3.946-2.62 6.34c0 1.526 0.39 3.024 1.126 4.35l0.026-0.166 0.056 0.32-0.080-0.154c-0.152 0.86-0.23 1.734-0.23 2.61 0 2.044 0.4 4.028 1.18 5.896 0.76 1.82 1.84 3.44 3.24 4.82 1.38 1.4 3 2.48 4.8 3.26 1.86 0.8 3.84 1.2 5.88 1.2 0.88 0 1.78-0.080 2.64-0.24l-0.16-0.080 0.32 0.060-0.18 0.040c1.34 0.76 2.84 1.16 4.4 1.16 2.38 0 4.62-0.92 6.32-2.62 1.68-1.68 2.62-3.94 2.62-6.34 0-1.52-0.4-3.020-1.14-4.36z"></path>
</symbol>
<symbol id="icon-slack" viewBox="0 0 32 32">
<path d="M13.172 14.66l1.38 4.114 4.274-1.432-1.38-4.1-4.274 1.44z"></path>
<path d="M25.1 18.74l-2.074 0.694 0.72 2.146c0.29 0.868-0.18 1.808-1.048 2.1-0.2 0.060-0.38 0.090-0.58 0.084-0.68-0.020-1.3-0.452-1.54-1.132l-0.72-2.144-4.28 1.432 0.72 2.144c0.28 0.87-0.18 1.81-1.060 2.1-0.2 0.064-0.38 0.090-0.58 0.086-0.68-0.020-1.3-0.452-1.54-1.132l-0.72-2.16-2.080 0.7c-0.2 0.060-0.38 0.080-0.58 0.080-0.68-0.020-1.3-0.46-1.54-1.14-0.3-0.88 0.18-1.82 1.040-2.1l2.080-0.7-1.318-4.118-2.068 0.7c-0.188 0.064-0.38 0.090-0.57 0.086-0.66-0.020-1.3-0.45-1.52-1.13-0.28-0.866 0.18-1.806 1.060-2.1l2.080-0.692-0.72-2.14c-0.28-0.872 0.18-1.812 1.060-2.1 0.88-0.294 1.82 0.18 2.1 1.044l0.72 2.144 4.258-1.432-0.72-2.14c-0.28-0.86 0.18-1.8 1.052-2.1 0.87-0.28 1.812 0.18 2.1 1.056l0.72 2.16 2.074-0.68c0.868-0.292 1.808 0.18 2.1 1.040 0.29 0.872-0.18 1.812-1.046 2.1l-2.076 0.7 1.38 4.114 2.068-0.688c0.87-0.28 1.81 0.18 2.1 1.060 0.292 0.88-0.18 1.82-1.040 2.1zM30.66 11.6c-3.3-10.992-8.064-13.56-19.060-10.26-10.992 3.3-13.56 8.060-10.26 19.060 3.3 10.994 8.060 13.56 19.060 10.26 10.994-3.3 13.56-8.060 10.26-19.060z"></path>
</symbol>
<symbol id="icon-soundcloud" viewBox="0 0 32 32">
<path d="M1.546 16.26c-0.068 0-0.124 0.060-0.134 0.132l-0.312 2.874 0.312 2.81c0.010 0.076 0.066 0.13 0.134 0.13 0.066 0 0.12-0.054 0.132-0.13l0.34-2.81-0.36-2.874c0-0.076-0.060-0.132-0.12-0.132zM0.338 17.364c-0.080 0-0.12 0.050-0.14 0.124l-0.22 1.78 0.22 1.744c0 0.074 0.060 0.126 0.12 0.126s0.12-0.060 0.14-0.14l0.28-1.76-0.28-1.78c0-0.080-0.060-0.12-0.12-0.12zM2.778 15.698c-0.080 0-0.16 0.060-0.16 0.14l-0.28 3.42 0.3 3.28c0 0.080 0.060 0.16 0.16 0.16 0.080 0 0.14-0.080 0.16-0.16l0.34-3.3-0.34-3.4c-0.020-0.080-0.080-0.16-0.16-0.16zM4.058 15.558c-0.1 0-0.18 0.080-0.2 0.18l-0.258 3.522 0.28 3.394c0.020 0.104 0.1 0.184 0.2 0.184s0.18-0.080 0.2-0.2l0.32-3.38-0.32-3.5c0-0.1-0.080-0.18-0.18-0.18zM5.6 16.038c-0.006-0.12-0.1-0.2-0.212-0.2-0.12 0-0.212 0.080-0.22 0.2l-0.288 3.242 0.266 3.42c0 0.12 0.1 0.21 0.212 0.21 0.1 0 0.2-0.092 0.2-0.212l0.3-3.42-0.3-3.26zM6.68 13.758c-0.134 0-0.24 0.12-0.24 0.24l-0.28 5.28 0.248 3.42c0 0.12 0.108 0.22 0.24 0.22 0.126 0 0.232-0.12 0.24-0.24l0.28-3.42-0.28-5.3c-0.010-0.14-0.116-0.24-0.24-0.24zM7.928 12.498c-0.14 0-0.26 0.12-0.27 0.26l-0.24 6.5 0.22 3.4c0 0.16 0.12 0.28 0.26 0.28s0.26-0.12 0.28-0.28l0.26-3.4-0.26-6.48c-0.020-0.16-0.14-0.28-0.28-0.28zM9.218 11.898c-0.16 0-0.28 0.12-0.3 0.28l-0.22 7.040 0.22 3.36c0.020 0.16 0.14 0.3 0.3 0.3s0.3-0.14 0.3-0.3l0.26-3.36-0.26-7.040c0-0.16-0.14-0.3-0.3-0.3zM10.878 11.938c0-0.18-0.14-0.32-0.32-0.32-0.16 0-0.32 0.14-0.32 0.32l-0.2 7.26 0.2 3.34c0.020 0.18 0.16 0.32 0.34 0.32s0.32-0.14 0.32-0.32l0.22-3.34-0.22-7.28zM11.878 11.758c-0.18 0-0.34 0.16-0.34 0.34l-0.2 7.1 0.2 3.3c0 0.2 0.16 0.34 0.34 0.34s0.34-0.16 0.34-0.36l0.2-3.3-0.22-7.080c0-0.2-0.16-0.36-0.36-0.36zM13.178 11.958c-0.22 0-0.38 0.18-0.38 0.38l-0.138 6.862 0.18 3.3c0 0.2 0.16 0.37 0.38 0.37 0.2 0 0.36-0.16 0.38-0.38l0.16-3.26-0.18-6.82c-0.016-0.22-0.18-0.38-0.38-0.38zM14.78 10.77c-0.060-0.040-0.14-0.060-0.22-0.060s-0.16 0.020-0.22 0.060c-0.12 0.072-0.2 0.2-0.2 0.34v0.080l-0.14 8.070 0.154 3.268v0.010c0.010 0.080 0.040 0.18 0.1 0.24 0.076 0.080 0.188 0.14 0.312 0.14 0.108 0 0.21-0.060 0.28-0.12 0.076-0.080 0.12-0.18 0.12-0.3l0.020-0.32 0.156-2.94-0.18-8.12c0-0.14-0.080-0.26-0.18-0.32zM16.122 10.038c-0.060-0.060-0.12-0.080-0.2-0.080-0.1 0-0.2 0.020-0.28 0.080-0.1 0.080-0.16 0.2-0.16 0.32v0.040l-0.18 8.82 0.1 1.62 0.080 1.58c0 0.22 0.2 0.42 0.44 0.42s0.44-0.2 0.44-0.44l0.2-3.22-0.2-8.856c0-0.16-0.1-0.294-0.22-0.37zM28.062 14.992c-0.54 0-1.060 0.114-1.52 0.31-0.32-3.54-3.28-6.32-6.92-6.32-0.88 0-1.74 0.18-2.52 0.48-0.3 0.12-0.36 0.24-0.38 0.48v12.5c0.020 0.24 0.2 0.44 0.44 0.46h10.92c2.16 0.020 3.92-1.72 3.92-3.9s-1.76-3.94-3.92-3.94z"></path>
</symbol>
<symbol id="icon-spotify" viewBox="0 0 32 32">
<path d="M16 0c-8.8 0-16 7.2-16 16s7.2 16 16 16 16-7.2 16-16-7.12-16-16-16zM23.36 23.12c-0.32 0.48-0.88 0.64-1.36 0.32-3.76-2.32-8.48-2.8-14.080-1.52-0.56 0.16-1.040-0.24-1.2-0.72-0.16-0.56 0.24-1.040 0.72-1.2 6.080-1.36 11.36-0.8 15.52 1.76 0.56 0.24 0.64 0.88 0.4 1.36zM25.28 18.72c-0.4 0.56-1.12 0.8-1.68 0.4-4.32-2.64-10.88-3.44-15.92-1.84-0.64 0.16-1.36-0.16-1.52-0.8s0.16-1.36 0.8-1.52c5.84-1.76 13.040-0.88 18 2.16 0.48 0.24 0.72 1.040 0.32 1.6zM25.44 14.24c-5.12-3.040-13.68-3.36-18.56-1.84-0.8 0.24-1.6-0.24-1.84-0.96-0.24-0.8 0.24-1.6 0.96-1.84 5.68-1.68 15.040-1.36 20.96 2.16 0.72 0.4 0.96 1.36 0.56 2.080-0.4 0.56-1.36 0.8-2.080 0.4z"></path>
</symbol>
<symbol id="icon-squarespace" viewBox="0 0 32 32">
<path d="M30.206 11.624c-2.4-2.4-6.3-2.4-8.752 0l-9.8 9.8c-0.6 0.6-0.6 1.6 0 2.2s1.6 0.6 2.2 0l9.8-9.8c1.2-1.2 3.152-1.2 4.352 0s1.2 3.152 0 4.352l-9.652 9.652c1.2 1.2 3.15 1.2 4.35 0l7.452-7.452c2.45-2.45 2.45-6.352 0.050-8.752zM26.906 14.874c-0.6-0.6-1.6-0.6-2.2 0l-9.806 9.852c-1.2 1.2-3.148 1.2-4.348 0-0.6-0.6-1.6-0.6-2.2 0s-0.6 1.6 0 2.2c2.4 2.4 6.3 2.4 8.752 0l9.8-9.8c0.6-0.65 0.6-1.652 0-2.252zM23.654 5.074c-2.4-2.4-6.3-2.4-8.752 0l-9.8 9.8c-0.6 0.6-0.6 1.6 0 2.2s1.6 0.6 2.2 0l9.86-9.8c1.2-1.2 3.16-1.2 4.36 0 0.6 0.6 1.6 0.6 2.2 0 0.56-0.65 0.56-1.6-0.040-2.2zM20.354 8.324c-0.6-0.6-1.6-0.6-2.2 0l-9.8 9.852c-1.2 1.2-3.152 1.2-4.354 0-1.2-1.2-1.2-3.152 0-4.352l9.652-9.652c-1.2-1.2-3.15-1.2-4.35 0l-7.502 7.452c-2.4 2.4-2.4 6.3 0 8.752 2.4 2.4 6.3 2.4 8.752 0l9.8-9.8c0.6-0.652 0.6-1.652 0-2.252z"></path>
</symbol>
<symbol id="icon-steam" viewBox="0 0 32 32">
<path d="M15.972 0c-8.404 0-15.292 6.48-15.944 14.716l8.576 3.544c0.726-0.494 1.604-0.786 2.548-0.786 0.084 0 0.168 0.004 0.252 0.008l3.816-5.522v-0.080c0-3.326 2.704-6.032 6.032-6.032 3.326 0 6.034 2.708 6.034 6.036s-2.708 6.034-6.034 6.034h-0.14l-5.436 3.882c0 0.068 0.006 0.14 0.006 0.212 0 2.5-2.020 4.528-4.52 4.528-2.18 0-4.020-1.564-4.44-3.636l-6.142-2.544c1.9 6.716 8.066 11.64 15.39 11.64 8.836 0 16-7.164 16-16s-7.164-16-16-16zM10.052 24.28l-1.964-0.814c0.35 0.724 0.952 1.332 1.752 1.666 1.73 0.72 3.724-0.1 4.444-1.832 0.35-0.84 0.352-1.76 0.006-2.6s-1-1.494-1.836-1.844c-0.832-0.346-1.72-0.332-2.504-0.040l2.030 0.84c1.276 0.534 1.88 2 1.346 3.274-0.53 1.276-1.996 1.88-3.272 1.348zM25.272 11.876c0-2.216-1.804-4.020-4.020-4.020-2.22 0-4.020 1.804-4.020 4.020 0 2.22 1.8 4.020 4.020 4.020 2.216 0 4.020-1.8 4.020-4.020zM18.24 11.87c0-1.67 1.35-3.020 3.020-3.020 1.666 0 3.020 1.35 3.020 3.020 0 1.668-1.354 3.020-3.020 3.020-1.67 0-3.020-1.352-3.020-3.020z"></path>
</symbol>
<symbol id="icon-stumbleupon" viewBox="0 0 32 32">
<path d="M16 0c-8.84 0-16 7.164-16 16 0 8.84 7.16 16 16 16s16-7.16 16-16c0-8.836-7.16-16-16-16zM15.176 11.876v6.6c0 2.472-2.256 4.334-4.6 4.334-2.192 0-4.24-1.036-4.472-3.512v-4.138h3.3v3.3c0 0.82 0.58 0.954 1.17 0.954 0.586 0 1.3-0.132 1.3-0.956v-6.6c0.066-2.458 2.106-4.018 4.386-4.018 2.326 0 3.866 1.76 3.866 4.020v1.4l-1.636 0.78-1.664-0.78v-2.208s-0.22-0.24-0.56-0.24c-0.566 0-1.088 0.24-1.088 1.064zM25.896 18.476c0 2.472-2.12 4.148-4.47 4.148-2.348 0-4.6-1.676-4.6-4.15v-3.3h3.3v3.3c0 0.824 0.714 0.956 1.3 0.956 0.588 0 1.172-0.132 1.172-0.956v-3.3h3.28v3.3z"></path>
</symbol>
<symbol id="icon-telegram" viewBox="0 0 32 32">
<path d="M25.586 21.38c1.14-3.12 5.32-14.98 5.988-18.088 0.76-3.52-0.828-3.86-4.44-2.68-3.61 1.18-12.87 4.61-14.43 5.164s-9.146 3.104-10.72 3.864c-3.212 1.724-1.65 4.354 1.94 5.72 10.74 5.154 7.69 2.528 12.484 12.064 0.986 2.436 3.312 6.586 5.54 3.448 1.172-1.784 2.74-7.040 3.64-9.494z"></path>
</symbol>
<symbol id="icon-trello" viewBox="0 0 32 32">
<path d="M4 0h24c2.208 0 4 1.79 4 4v24c0 2.208-1.79 4-4 4h-24c-2.208 0-4-1.79-4-4v-24c0-2.208 1.79-4 4-4zM20 4.16c-1.060 0-1.92 0.86-1.92 1.92v10.16c0 1.060 0.86 1.92 1.92 1.92h5.92c1.060 0 1.92-0.86 1.92-1.92v-10.16c0-1.060-0.86-1.92-1.92-1.92h-5.92zM6.080 4.16c-1.060 0-1.92 0.86-1.92 1.92v18.16c0 1.060 0.86 1.92 1.92 1.92h5.92c1.060 0 1.92-0.86 1.92-1.92v-18.16c0-1.060-0.86-1.92-1.92-1.92h-5.92z"></path>
</symbol>
<symbol id="icon-tripadvisor" viewBox="0 0 32 32">
<path d="M30.426 12.704c0.374-1.608 1.566-3.22 1.566-3.22h-5.348c-3-1.94-6.64-2.966-10.68-2.966-4.186 0-7.968 1.040-10.95 3h-5.014s1.18 1.58 1.56 3.18c-0.976 1.342-1.556 2.962-1.556 4.742 0 4.42 3.596 8.010 8.014 8.010 2.52 0 4.76-1.18 6.24-3.006l1.7 2.554 1.72-2.58c0.76 0.98 1.76 1.78 2.94 2.32 1.94 0.88 4.12 0.98 6.12 0.24 4.14-1.54 6.26-6.16 4.74-10.3-0.28-0.74-0.64-1.4-1.080-1.98zM26.2 23.464c-1.6 0.594-3.34 0.526-4.892-0.19-1.1-0.51-2.004-1.308-2.652-2.3-0.266-0.4-0.5-0.83-0.67-1.294-0.194-0.526-0.292-1.070-0.344-1.62-0.1-1.108 0.060-2.232 0.54-3.27 0.72-1.552 2-2.734 3.6-3.326 3.32-1.22 7 0.48 8.22 3.786 1.22 3.308-0.48 6.99-3.78 8.216zM13.312 21.020c-1.152 1.696-3.096 2.816-5.296 2.816-3.528 0-6.4-2.874-6.4-6.394s2.874-6.4 6.4-6.4c3.526 0 6.396 2.88 6.396 6.4 0 0.22-0.040 0.42-0.064 0.64-0.108 1.080-0.454 2.1-1.036 2.96zM3.952 17.36c0 2.186 1.78 3.96 3.96 3.96s3.956-1.774 3.956-3.96c0-2.18-1.776-3.952-3.954-3.952-2.18 0-3.96 1.772-3.96 3.952zM20.012 17.36c0 2.186 1.772 3.96 3.956 3.96 2.18 0 3.952-1.774 3.952-3.96 0-2.18-1.772-3.952-3.952-3.952s-3.96 1.772-3.96 3.952zM5.318 17.36c0-1.428 1.16-2.59 2.58-2.59s2.6 1.164 2.6 2.59c0 1.434-1.16 2.6-2.6 2.6s-2.6-1.166-2.6-2.6zM21.358 17.36c0-1.428 1.16-2.59 2.6-2.59 1.42 0 2.58 1.164 2.58 2.59 0 1.434-1.16 2.6-2.6 2.6s-2.6-1.166-2.6-2.6zM15.958 7.916c2.88 0 5.48 0.52 7.76 1.55-0.86 0.024-1.7 0.174-2.54 0.48-2.020 0.74-3.62 2.22-4.5 4.166-0.42 0.88-0.64 1.812-0.72 2.754-0.3-4.1-3.68-7.352-7.84-7.436 2.28-0.98 4.92-1.514 7.78-1.514z"></path>
</symbol>
<symbol id="icon-tumblr" viewBox="0 0 32 32">
<path d="M19.416 32c-6.792 0-9.374-5.008-9.374-8.548v-10.456h-3.222v-4.132c4.84-1.75 6.016-6.128 6.28-8.624 0.020-0.172 0.154-0.24 0.23-0.24h4.69v8.152h6.4v4.844h-6.426v9.96c0.020 1.334 0.5 3.16 2.944 3.16h0.12c0.84-0.024 1.98-0.272 2.58-0.556l1.54 4.566c-0.58 0.848-3.2 1.832-5.54 1.872h-0.238z"></path>
</symbol>
<symbol id="icon-twitch" viewBox="0 0 32 32">
<path d="M2.786 0l-2.086 5.566v22.26h7.648v4.174h4.176l4.17-4.176h6.26l8.346-8.344v-19.48h-28.512zM5.566 2.78h22.954v15.306l-4.87 4.87h-7.65l-4.17 4.17v-4.17h-6.264v-20.176z"></path>
<path d="M13.22 16.696h2.78v-8.346h-2.78v8.346zM20.868 16.696h2.78v-8.346h-2.78v8.346z"></path>
</symbol>
<symbol id="icon-twitter" viewBox="0 0 32 32">
<path d="M32 6.076c-1.18 0.52-2.44 0.874-3.77 1.034 1.354-0.814 2.396-2.1 2.886-3.632-1.268 0.74-2.674 1.28-4.17 1.58-1.196-1.28-2.9-2.080-4.792-2.080-3.624 0-6.564 2.94-6.564 6.56 0 0.52 0.060 1.020 0.17 1.5-5.456-0.26-10.294-2.88-13.532-6.84-0.568 0.962-0.888 2.082-0.888 3.302 0 2.28 1.16 4.286 2.92 5.464-1.076-0.034-2.090-0.33-2.974-0.82v0.080c0 3.18 2.26 5.836 5.266 6.44-0.552 0.148-1.132 0.228-1.73 0.228-0.42 0-0.82-0.040-1.22-0.116 0.84 2.608 3.26 4.506 6.14 4.56-2.24 1.76-5.080 2.808-8.14 2.808-0.52 0-1.040-0.030-1.56-0.090 2.92 1.86 6.36 2.948 10.080 2.948 12.080 0 18.68-10 18.68-18.66 0-0.28 0-0.56-0.020-0.84 1.28-0.92 2.4-2.080 3.28-3.4z"></path>
</symbol>
<symbol id="icon-vimeo" viewBox="0 0 32 32">
<path d="M31.984 8.55c-0.14 3.12-2.32 7.394-6.526 12.82-4.36 5.664-8.040 8.496-11.060 8.496-1.88 0-3.44-1.724-4.74-5.176l-2.558-9.49c-0.96-3.448-1.986-5.174-3.084-5.174-0.24 0-1.076 0.504-2.51 1.51l-1.506-1.944c1.58-1.392 3.136-2.78 4.67-4.172 2.106-1.824 3.688-2.78 4.74-2.88 2.492-0.24 4.024 1.466 4.6 5.12 0.62 3.94 1.052 6.388 1.294 7.346 0.72 3.268 1.508 4.9 2.37 4.9 0.67 0 1.676-1.060 3.020-3.18 1.34-2.12 2.056-3.732 2.152-4.84 0.192-1.83-0.526-2.748-2.154-2.748-0.766 0-1.556 0.16-2.37 0.52 1.58-5.16 4.58-7.68 9.020-7.52 3.3 0.080 4.84 2.22 4.66 6.4z"></path>
</symbol>
<symbol id="icon-vk" viewBox="0 0 32 32">
<path d="M15.656 25.052h1.914s0.576-0.064 0.872-0.38c0.28-0.294 0.28-0.84 0.28-0.84s-0.040-2.568 1.16-2.946c1.18-0.374 2.68 2.48 4.28 3.576 1.22 0.84 2.14 0.66 2.14 0.66l4.28-0.060s2.24-0.14 1.18-1.9c-0.080-0.14-0.6-1.3-3.16-3.68-2.68-2.48-2.32-2.080 0.9-6.38 1.96-2.62 2.76-4.22 2.5-4.9-0.22-0.64-1.68-0.48-1.68-0.48l-4.8 0.040s-0.36-0.040-0.62 0.12-0.42 0.52-0.42 0.52-0.76 2.040-1.78 3.76c-2.162 3.638-3.022 3.838-3.362 3.598-0.806-0.52-0.6-2.106-0.6-3.24 0-3.52 0.54-5-1.040-5.38-0.52-0.12-0.908-0.2-2.246-0.22-1.72-0.020-3.17 0.012-3.992 0.414-0.54 0.27-0.96 0.868-0.72 0.9 0.32 0.040 1.040 0.196 1.42 0.716 0.5 0.674 0.48 2.18 0.48 2.18s0.28 4.154-0.66 4.67c-0.66 0.348-1.54-0.374-3.46-3.674-0.98-1.68-1.72-3.56-1.72-3.56s-0.14-0.34-0.4-0.54c-0.3-0.22-0.74-0.3-0.74-0.3l-4.58 0.040s-0.68 0.020-0.92 0.32c-0.22 0.26-0.020 0.82-0.020 0.82s3.58 8.38 7.64 12.6c3.72 3.87 7.94 3.62 7.94 3.62z"></path>
</symbol>
<symbol id="icon-wechat" viewBox="0 0 32 32">
<path d="M31.386 17c-0.812-1.84-2.344-3.3-4.12-4.2-3.14-1.59-7.044-1.58-10.172 0.040-2.176 1.116-3.99 3.116-4.506 5.55-0.426 1.792-0.044 3.72 0.906 5.28 1.414 2.35 3.97 3.85 6.626 4.33 1.926 0.392 3.916 0.16 5.786-0.38 1.12 0.436 2.12 1.14 3.21 1.66-0.28-0.94-0.58-1.874-0.9-2.8 1.22-0.868 2.326-1.948 2.992-3.304 0.992-1.89 1.052-4.23 0.18-6.174zM18.156 4.38c-3.326-1.872-7.47-2.154-11.048-0.86-2.35 0.846-4.48 2.42-5.794 4.56-1.192 1.934-1.64 4.344-1.064 6.556 0.576 2.454 2.28 4.51 4.348 5.884-0.4 1.132-0.78 2.266-1.14 3.406 1.3-0.68 2.6-1.39 3.9-2.080 1.56 0.5 3.22 0.744 4.88 0.69-0.44-1.26-0.54-2.62-0.34-3.936 0.3-1.828 1.3-3.5 2.66-4.74 2.3-2.152 5.56-3.060 8.66-2.84-0.58-2.846-2.58-5.252-5.1-6.64zM20.464 17.7c-0.276 0.868-1.54 1.13-2.152 0.468-0.674-0.612-0.412-1.892 0.472-2.164 0.98-0.414 2.11 0.716 1.68 1.696zM26.858 17.82c-0.34 0.784-1.52 0.964-2.1 0.36-0.28-0.254-0.36-0.636-0.46-0.974 0.14-0.61 0.56-1.244 1.24-1.272 0.94-0.13 1.78 1.030 1.3 1.886zM17.32 9.216c0.010 1.28-1.7 2.080-2.66 1.212-0.996-0.714-0.714-2.45 0.456-2.81 1.046-0.42 2.284 0.46 2.2 1.58zM9.24 9.54c-0.228 1.114-1.72 1.652-2.594 0.904-1.012-0.712-0.728-2.48 0.46-2.84 1.164-0.448 2.486 0.734 2.136 1.936z"></path>
</symbol>
<symbol id="icon-whatsapp" viewBox="0 0 32 32">
<path d="M23.33 19.176c-0.4-0.2-2.354-1.156-2.72-1.288-0.364-0.134-0.63-0.2-0.896 0.2-0.264 0.394-1.028 1.286-1.26 1.55-0.232 0.26-0.464 0.28-0.86 0.1-0.4-0.2-1.684-0.62-3.204-1.98-1.184-1.060-1.98-2.36-2.214-2.76-0.232-0.4-0.026-0.62 0.174-0.82 0.18-0.18 0.4-0.46 0.6-0.7 0.196-0.24 0.26-0.4 0.396-0.66 0.132-0.28 0.066-0.5-0.034-0.7s-0.896-2.16-1.228-2.94c-0.32-0.78-0.65-0.68-0.896-0.68-0.23-0.020-0.496-0.020-0.76-0.020-0.268 0-0.7 0.1-1.064 0.48-0.364 0.4-1.392 1.36-1.392 3.3s1.426 3.82 1.624 4.1c0.2 0.26 2.808 4.26 6.8 5.98 0.952 0.4 1.692 0.64 2.272 0.84 0.952 0.3 1.82 0.26 2.506 0.16 0.766-0.12 2.356-0.96 2.688-1.9 0.34-0.94 0.34-1.72 0.24-1.9s-0.36-0.28-0.76-0.46zM16.080 29h-0.020c-2.36 0-4.7-0.64-6.74-1.84l-0.48-0.286-5 1.3 1.34-4.86-0.32-0.5c-1.32-2.1-2.020-4.52-2.020-7.012 0-7.26 5.94-13.18 13.256-13.18 3.54 0 6.86 1.38 9.36 3.88 2.5 2.48 3.88 5.8 3.88 9.32-0.006 7.26-5.946 13.18-13.246 13.18zM27.36 4.6c-3.040-2.94-7.040-4.6-11.3-4.6-8.776 0-15.92 7.112-15.926 15.856 0 2.794 0.732 5.52 2.126 7.928l-2.26 8.216 8.446-2.204c2.328 1.26 4.948 1.928 7.614 1.93h0.008c8.78 0 15.928-7.114 15.932-15.86 0-4.234-1.654-8.22-4.66-11.216z"></path>
</symbol>
<symbol id="icon-wordpress" viewBox="0 0 32 32">
<path d="M28.624 9.1c1.12 2.048 1.76 4.4 1.76 6.9 0 5.306-2.876 9.94-7.152 12.434l4.394-12.704c0.82-2.052 1.094-3.694 1.094-5.152 0-0.54-0.036-1.040-0.096-1.48zM17.984 9.238c0.864-0.040 1.644-0.14 1.644-0.14 0.776-0.1 0.684-1.24-0.090-1.2 0 0-2.34 0.18-3.84 0.18-1.42 0-3.8-0.2-3.8-0.2-0.78-0.040-0.88 1.14-0.1 1.18 0 0 0.72 0.080 1.5 0.12l2.24 6.14-3.16 9.44-5.238-15.558c0.864-0.040 1.644-0.134 1.644-0.134 0.78-0.1 0.688-1.24-0.088-1.194 0 0-2.328 0.184-3.832 0.184-0.266 0-0.584-0.010-0.92-0.020 2.604-3.836 7.036-6.416 12.056-6.416 3.744 0 7.154 1.43 9.714 3.776-0.060-0.004-0.12-0.012-0.186-0.012-1.414 0-2.416 1.23-2.416 2.552 0 1.186 0.684 2.19 1.412 3.374 0.548 0.96 1.188 2.19 1.188 3.968 0 1.22-0.474 2.66-1.096 4.64l-1.434 4.78-5.2-15.48zM16 30.38c-1.412 0-2.774-0.206-4.064-0.584l4.316-12.54 4.42 12.114c0.032 0.070 0.066 0.136 0.104 0.2-1.494 0.524-3.1 0.814-4.776 0.814zM1.614 16c0-2.086 0.448-4.066 1.246-5.854l6.86 18.8c-4.794-2.332-8.104-7.252-8.104-12.946zM16 0c-8.82 0-16 7.18-16 16s7.18 16 16 16 16-7.18 16-16-7.18-16-16-16z"></path>
</symbol>
<symbol id="icon-xing" viewBox="0 0 32 32">
<path d="M24.252 0c-0.69 0-0.988 0.434-1.236 0.88 0 0-9.94 17.632-10.27 18.21 0.020 0.032 6.56 12.030 6.56 12.030 0.226 0.41 0.58 0.88 1.288 0.88h4.606c0.28 0 0.5-0.104 0.616-0.294 0.12-0.2 0.12-0.46-0.010-0.714l-6.506-11.888c-0.006-0.008-0.006-0.020 0-0.030l10.22-18.066c0.126-0.256 0.128-0.516 0.008-0.714-0.12-0.19-0.336-0.294-0.614-0.294h-4.66zM4.864 6.32c-0.28 0-0.512 0.1-0.63 0.288-0.12 0.2-0.104 0.452 0.026 0.708l3.12 5.4c0.006 0.012 0.006 0.020 0 0.028l-4.9 8.656c-0.13 0.252-0.124 0.508 0 0.706 0.114 0.19 0.32 0.314 0.6 0.314h4.616c0.69 0 1.020-0.464 1.26-0.89l4.98-8.812-3.172-5.54c-0.23-0.42-0.58-0.88-1.284-0.88h-4.616z"></path>
</symbol>
<symbol id="icon-youtube" viewBox="0 0 32 32">
<path d="M0 14.69v2.52c0 2.59 0.32 5.18 0.32 5.18s0.312 2.2 1.272 3.174c1.216 1.274 2.816 1.234 3.528 1.368 2.56 0.246 10.88 0.32 10.88 0.32s6.724-0.008 11.2-0.332c0.628-0.076 1.992-0.080 3.208-1.356 0.96-0.972 1.272-3.176 1.272-3.176s0.32-2.588 0.32-5.18v-2.516c0-2.592-0.32-5.18-0.32-5.18s-0.312-2.204-1.272-3.176c-1.216-1.276-2.58-1.28-3.208-1.356-4.476-0.324-11.2-0.332-11.2-0.332s-8.32 0.072-10.88 0.32c-0.712 0.134-2.312 0.094-3.528 1.368-0.96 0.974-1.272 3.174-1.272 3.174s-0.32 2.592-0.32 5.18zM12.696 20.15v-8.99l8.646 4.51-8.64 4.48z"></path>
</symbol>
</defs>
</svg>
